<svg xmlns="http://www.w3.org/2000/svg" xmlns:xlink="http://www.w3.org/1999/xlink" width="500" zoomAndPan="magnify" viewBox="0 0 375 374.999991" height="500" preserveAspectRatio="xMidYMid meet" version="1.0"><defs><clipPath id="e54a0db1c8"><path d="M 153.328125 148.347656 L 221.578125 148.347656 L 221.578125 226.347656 L 153.328125 226.347656 Z M 153.328125 148.347656 " clip-rule="nonzero"/></clipPath></defs><g clip-path="url(#e54a0db1c8)"><path fill="#000000" d="M 190.183594 226.035156 C 195.753906 223.199219 200.859375 219.691406 205.5 215.515625 C 206.558594 214.574219 207.566406 213.574219 208.527344 212.511719 L 209.773438 211.097656 C 210.410156 210.410156 210.976562 209.6875 211.582031 208.914062 C 212.191406 208.136719 212.996094 207.148438 213.5625 206.234375 C 214.894531 204.324219 216.0625 202.320312 217.070312 200.226562 C 217.621094 199.082031 218.132812 197.910156 218.597656 196.726562 C 219.78125 193.613281 220.566406 190.402344 220.960938 187.09375 C 221.074219 186.175781 221.15625 185.257812 221.214844 184.34375 C 221.382812 181.984375 221.296875 179.632812 220.960938 177.289062 C 220.472656 173.875 219.480469 170.609375 217.988281 167.496094 C 216.492188 164.378906 214.566406 161.5625 212.207031 159.039062 C 210.855469 157.59375 209.390625 156.277344 207.808594 155.089844 C 206.226562 153.902344 204.550781 152.859375 202.785156 151.964844 C 201.019531 151.074219 199.1875 150.339844 197.292969 149.765625 C 195.398438 149.195312 193.464844 148.792969 191.5 148.558594 C 190.863281 148.523438 190.230469 148.453125 189.605469 148.347656 L 185.136719 148.347656 C 185.136719 148.460938 184.980469 148.417969 184.894531 148.429688 C 183.742188 148.523438 182.597656 148.675781 181.457031 148.882812 C 179.625 149.222656 177.832031 149.707031 176.078125 150.34375 C 174.328125 150.976562 172.636719 151.75 171.011719 152.660156 C 169.386719 153.570312 167.847656 154.609375 166.394531 155.773438 C 164.941406 156.9375 163.59375 158.214844 162.347656 159.601562 C 161.105469 160.984375 159.984375 162.464844 158.988281 164.035156 C 157.988281 165.605469 157.125 167.246094 156.398438 168.957031 C 155.671875 170.667969 155.089844 172.429688 154.652344 174.238281 C 154.214844 176.042969 153.929688 177.875 153.792969 179.730469 C 153.417969 184.808594 154.132812 189.726562 155.945312 194.484375 C 156.246094 195.273438 156.59375 196.042969 156.976562 196.796875 L 157.261719 197.375 C 159.058594 200.945312 161.414062 204.101562 164.332031 206.839844 C 165.851562 208.28125 167.492188 209.566406 169.253906 210.699219 C 171.015625 211.835938 172.867188 212.796875 174.808594 213.582031 C 176.75 214.371094 178.75 214.972656 180.804688 215.386719 C 182.859375 215.800781 184.933594 216.023438 187.03125 216.050781 C 187.425781 216.050781 187.539062 216.148438 187.527344 216.558594 L 187.527344 224.511719 C 187.53125 224.664062 187.558594 224.816406 187.601562 224.960938 C 187.644531 225.109375 187.707031 225.246094 187.785156 225.378906 C 187.867188 225.507812 187.960938 225.625 188.070312 225.734375 C 188.179688 225.839844 188.300781 225.933594 188.433594 226.007812 C 188.566406 226.085938 188.707031 226.140625 188.855469 226.183594 C 189 226.222656 189.152344 226.246094 189.304688 226.246094 C 189.457031 226.25 189.609375 226.234375 189.757812 226.199219 C 189.90625 226.164062 190.050781 226.109375 190.183594 226.035156 Z M 190.664062 173.074219 C 190.597656 172.695312 190.640625 172.335938 190.796875 171.984375 C 190.957031 171.636719 191.199219 171.367188 191.527344 171.167969 C 191.800781 171 192.097656 170.921875 192.417969 170.929688 L 204.964844 170.929688 C 206.082031 170.929688 206.71875 171.917969 206.71875 173.199219 L 206.71875 187.980469 C 206.714844 189.035156 206.5625 190.0625 206.253906 191.070312 C 205.949219 192.078125 205.507812 193.019531 204.925781 193.894531 C 204.34375 194.773438 203.648438 195.546875 202.835938 196.222656 C 202.027344 196.898438 201.140625 197.441406 200.167969 197.855469 L 199.886719 197.996094 C 199.949219 198.074219 200.027344 198.113281 200.128906 198.109375 C 200.027344 198.113281 199.949219 198.074219 199.886719 197.996094 L 199.644531 197.996094 C 198.832031 198.234375 198.007812 198.417969 197.171875 198.546875 C 197.039062 198.585938 196.902344 198.59375 196.765625 198.570312 C 196.625 198.546875 196.5 198.496094 196.386719 198.414062 C 196.273438 198.332031 196.183594 198.230469 196.117188 198.105469 C 196.050781 197.984375 196.015625 197.851562 196.011719 197.714844 C 196.011719 197.261719 196.011719 196.8125 196.011719 196.304688 L 196.011719 193.878906 C 196.011719 193.695312 196.011719 193.523438 196.011719 193.339844 C 196.011719 192.722656 196.253906 192.453125 197.03125 192.285156 C 198.03125 192.109375 198.917969 191.691406 199.6875 191.027344 C 200.59375 190.152344 201.121094 189.089844 201.273438 187.839844 L 192.476562 187.839844 C 192.230469 187.847656 191.992188 187.808594 191.761719 187.714844 C 191.53125 187.625 191.332031 187.492188 191.15625 187.316406 C 190.984375 187.140625 190.855469 186.9375 190.765625 186.707031 C 190.675781 186.476562 190.640625 186.238281 190.652344 185.992188 C 190.652344 181.714844 190.652344 177.4375 190.652344 173.15625 C 190.652344 173.15625 190.664062 173.101562 190.664062 173.074219 Z M 184.398438 187.953125 C 184.40625 189.464844 184.097656 190.910156 183.484375 192.289062 C 182.867188 193.667969 181.992188 194.859375 180.863281 195.867188 L 180.511719 196.203125 C 179.335938 197.144531 178.023438 197.820312 176.578125 198.234375 C 175.960938 198.390625 175.332031 198.507812 174.699219 198.589844 C 174.476562 198.621094 174.273438 198.578125 174.082031 198.457031 C 173.894531 198.335938 173.769531 198.167969 173.707031 197.953125 C 173.707031 196.589844 173.707031 195.230469 173.707031 193.878906 C 173.707031 193.484375 173.566406 193.046875 173.890625 192.691406 C 174.046875 192.511719 174.242188 192.394531 174.472656 192.339844 C 175.199219 192.207031 175.894531 191.972656 176.550781 191.636719 C 177.128906 191.300781 177.613281 190.863281 178.007812 190.328125 C 178.398438 189.789062 178.667969 189.195312 178.8125 188.546875 L 179.039062 187.839844 L 170.382812 187.839844 C 170.136719 187.851562 169.890625 187.828125 169.648438 187.769531 C 169.277344 187.671875 168.972656 187.472656 168.738281 187.171875 C 168.5 186.871094 168.375 186.53125 168.363281 186.148438 C 168.363281 181.8125 168.363281 177.476562 168.363281 173.144531 C 168.292969 172.808594 168.308594 172.476562 168.414062 172.152344 C 168.515625 171.824219 168.691406 171.542969 168.941406 171.308594 C 169.246094 171.03125 169.605469 170.890625 170.015625 170.886719 L 182.644531 170.886719 C 183.765625 170.886719 184.386719 171.238281 184.386719 173.15625 C 184.398438 173.511719 184.429688 183.226562 184.398438 187.953125 Z M 184.398438 187.953125 " fill-opacity="1" fill-rule="nonzero"/></g></svg>