<svg xmlns="http://www.w3.org/2000/svg" xmlns:xlink="http://www.w3.org/1999/xlink" width="500" zoomAndPan="magnify" viewBox="0 0 375 374.999991" height="500" preserveAspectRatio="xMidYMid meet" version="1.0"><defs><g/><clipPath id="daafde1919"><path d="M 48 148.347656 L 116 148.347656 L 116 226.347656 L 48 226.347656 Z M 48 148.347656 " clip-rule="nonzero"/></clipPath></defs><g clip-path="url(#daafde1919)"><path fill="#000000" d="M 84.625 226.035156 C 90.195312 223.199219 95.300781 219.691406 99.941406 215.515625 C 101 214.574219 102.007812 213.574219 102.96875 212.511719 L 104.214844 211.097656 C 104.851562 210.410156 105.414062 209.6875 106.023438 208.914062 C 106.632812 208.136719 107.4375 207.148438 108.003906 206.234375 C 109.335938 204.324219 110.503906 202.320312 111.511719 200.226562 C 112.0625 199.082031 112.570312 197.910156 113.039062 196.726562 C 114.222656 193.613281 115.007812 190.402344 115.402344 187.09375 C 115.515625 186.175781 115.597656 185.257812 115.65625 184.34375 C 115.824219 181.984375 115.738281 179.632812 115.402344 177.289062 C 114.910156 173.875 113.921875 170.609375 112.425781 167.496094 C 110.933594 164.378906 109.007812 161.5625 106.644531 159.039062 C 105.296875 157.59375 103.832031 156.277344 102.246094 155.089844 C 100.664062 153.902344 98.992188 152.859375 97.226562 151.964844 C 95.460938 151.074219 93.628906 150.339844 91.734375 149.765625 C 89.839844 149.195312 87.90625 148.792969 85.941406 148.558594 C 85.304688 148.523438 84.671875 148.453125 84.046875 148.347656 L 79.578125 148.347656 C 79.578125 148.460938 79.421875 148.417969 79.335938 148.429688 C 78.183594 148.523438 77.039062 148.675781 75.898438 148.882812 C 74.066406 149.222656 72.273438 149.707031 70.519531 150.34375 C 68.765625 150.976562 67.078125 151.75 65.453125 152.660156 C 63.828125 153.570312 62.289062 154.609375 60.835938 155.773438 C 59.382812 156.9375 58.035156 158.214844 56.789062 159.601562 C 55.546875 160.984375 54.425781 162.464844 53.429688 164.035156 C 52.429688 165.605469 51.566406 167.246094 50.839844 168.957031 C 50.109375 170.667969 49.527344 172.429688 49.09375 174.238281 C 48.65625 176.042969 48.371094 177.875 48.234375 179.730469 C 47.859375 184.808594 48.574219 189.726562 50.386719 194.484375 C 50.6875 195.273438 51.03125 196.042969 51.417969 196.796875 L 51.699219 197.375 C 53.5 200.945312 55.855469 204.101562 58.773438 206.839844 C 60.292969 208.28125 61.933594 209.566406 63.695312 210.699219 C 65.457031 211.835938 67.308594 212.796875 69.25 213.582031 C 71.191406 214.371094 73.191406 214.972656 75.246094 215.386719 C 77.300781 215.800781 79.375 216.023438 81.472656 216.050781 C 81.867188 216.050781 81.980469 216.148438 81.964844 216.558594 L 81.964844 224.511719 C 81.972656 224.664062 81.996094 224.816406 82.042969 224.960938 C 82.085938 225.109375 82.148438 225.246094 82.226562 225.378906 C 82.304688 225.507812 82.402344 225.625 82.511719 225.734375 C 82.621094 225.839844 82.742188 225.933594 82.875 226.007812 C 83.007812 226.085938 83.148438 226.140625 83.292969 226.183594 C 83.441406 226.222656 83.59375 226.246094 83.746094 226.246094 C 83.898438 226.25 84.050781 226.234375 84.199219 226.199219 C 84.347656 226.164062 84.488281 226.109375 84.625 226.035156 Z M 85.105469 173.074219 C 85.035156 172.695312 85.082031 172.335938 85.238281 171.984375 C 85.398438 171.636719 85.640625 171.367188 85.96875 171.167969 C 86.242188 171 86.539062 170.921875 86.859375 170.929688 L 99.40625 170.929688 C 100.523438 170.929688 101.160156 171.917969 101.160156 173.199219 L 101.160156 187.980469 C 101.15625 189.035156 101 190.0625 100.695312 191.070312 C 100.390625 192.078125 99.949219 193.019531 99.367188 193.894531 C 98.785156 194.773438 98.089844 195.546875 97.277344 196.222656 C 96.46875 196.898438 95.578125 197.441406 94.609375 197.855469 L 94.328125 197.996094 C 94.390625 198.074219 94.46875 198.113281 94.566406 198.109375 C 94.46875 198.113281 94.390625 198.074219 94.328125 197.996094 L 94.085938 197.996094 C 93.273438 198.234375 92.449219 198.417969 91.613281 198.546875 C 91.476562 198.585938 91.34375 198.59375 91.203125 198.570312 C 91.066406 198.546875 90.941406 198.496094 90.828125 198.414062 C 90.714844 198.332031 90.625 198.230469 90.558594 198.105469 C 90.492188 197.984375 90.457031 197.851562 90.453125 197.714844 C 90.453125 197.261719 90.453125 196.8125 90.453125 196.304688 L 90.453125 193.878906 C 90.453125 193.695312 90.453125 193.523438 90.453125 193.339844 C 90.453125 192.722656 90.691406 192.453125 91.46875 192.285156 C 92.472656 192.109375 93.359375 191.691406 94.128906 191.027344 C 95.035156 190.152344 95.5625 189.089844 95.714844 187.839844 L 86.917969 187.839844 C 86.667969 187.847656 86.433594 187.808594 86.203125 187.714844 C 85.972656 187.625 85.773438 187.492188 85.597656 187.316406 C 85.425781 187.140625 85.292969 186.9375 85.207031 186.707031 C 85.117188 186.476562 85.082031 186.238281 85.09375 185.992188 C 85.09375 181.714844 85.09375 177.4375 85.09375 173.15625 C 85.09375 173.15625 85.105469 173.101562 85.105469 173.074219 Z M 78.839844 187.953125 C 78.847656 189.464844 78.539062 190.910156 77.921875 192.289062 C 77.308594 193.667969 76.433594 194.859375 75.304688 195.867188 L 74.953125 196.203125 C 73.777344 197.144531 72.464844 197.820312 71.019531 198.234375 C 70.398438 198.390625 69.773438 198.507812 69.140625 198.589844 C 68.917969 198.621094 68.710938 198.578125 68.523438 198.457031 C 68.335938 198.335938 68.210938 198.167969 68.148438 197.953125 C 68.148438 196.589844 68.148438 195.230469 68.148438 193.878906 C 68.148438 193.484375 68.007812 193.046875 68.332031 192.691406 C 68.488281 192.511719 68.683594 192.394531 68.914062 192.339844 C 69.640625 192.207031 70.332031 191.972656 70.992188 191.636719 C 71.570312 191.300781 72.054688 190.863281 72.449219 190.328125 C 72.839844 189.789062 73.109375 189.195312 73.253906 188.546875 L 73.480469 187.839844 L 64.824219 187.839844 C 64.578125 187.851562 64.332031 187.828125 64.089844 187.769531 C 63.71875 187.671875 63.414062 187.472656 63.175781 187.171875 C 62.941406 186.871094 62.816406 186.53125 62.804688 186.148438 C 62.804688 181.8125 62.804688 177.476562 62.804688 173.144531 C 62.734375 172.808594 62.75 172.476562 62.855469 172.152344 C 62.957031 171.824219 63.132812 171.542969 63.382812 171.308594 C 63.6875 171.03125 64.046875 170.890625 64.457031 170.886719 L 77.085938 170.886719 C 78.203125 170.886719 78.828125 171.238281 78.828125 173.15625 C 78.839844 173.511719 78.871094 183.226562 78.839844 187.953125 Z M 78.839844 187.953125 " fill-opacity="1" fill-rule="nonzero"/></g><g fill="#000000" fill-opacity="1"><g transform="translate(124.982017, 198.450045)"><g><path d="M 17.589844 0.476562 C 24.738281 0.476562 30.371094 -3.8125 32.105469 -10.660156 L 28.25 -10.660156 C 26.644531 -6.023438 22.703125 -3.25 17.589844 -3.25 C 10.832031 -3.25 5.9375 -8.144531 5.9375 -15.121094 C 5.9375 -22.097656 10.832031 -27.078125 17.589844 -27.078125 C 22.574219 -27.078125 26.472656 -24.4375 28.078125 -20.0625 L 31.976562 -20.0625 C 30.242188 -26.601562 24.609375 -30.761719 17.589844 -30.761719 C 8.578125 -30.761719 2.035156 -24.21875 2.035156 -15.121094 C 2.035156 -6.066406 8.578125 0.476562 17.589844 0.476562 Z M 17.589844 0.476562 "/></g></g></g><g fill="#000000" fill-opacity="1"><g transform="translate(158.601666, 198.450045)"><g><path d="M 15.382812 -23.875 C 12 -23.875 9.183594 -22.488281 7.367188 -20.191406 L 7.367188 -31.714844 L 3.683594 -31.714844 L 3.683594 0 L 7.367188 0 L 7.367188 -12.738281 C 7.367188 -17.113281 10.441406 -20.539062 14.472656 -20.539062 C 18.5 -20.539062 20.753906 -17.851562 20.753906 -13.128906 L 20.753906 0 L 24.4375 0 L 24.4375 -13.996094 C 24.4375 -20.0625 20.96875 -23.875 15.382812 -23.875 Z M 15.382812 -23.875 "/></g></g></g><g fill="#000000" fill-opacity="1"><g transform="translate(186.415855, 198.450045)"><g><path d="M 23.65625 -23.398438 L 23.179688 -19.800781 C 21.015625 -22.355469 17.765625 -23.875 13.953125 -23.875 C 7.019531 -23.875 1.820312 -18.675781 1.820312 -11.65625 C 1.820312 -4.722656 7.019531 0.519531 13.953125 0.519531 C 17.765625 0.519531 20.96875 -0.996094 23.136719 -3.507812 L 23.527344 0 L 26.558594 0 L 26.558594 -23.398438 Z M 14.210938 -3.03125 C 9.273438 -3.03125 5.589844 -6.757812 5.589844 -11.699219 C 5.589844 -16.59375 9.273438 -20.320312 14.210938 -20.320312 C 19.195312 -20.320312 22.789062 -16.636719 22.789062 -11.699219 C 22.789062 -6.714844 19.195312 -3.03125 14.210938 -3.03125 Z M 14.210938 -3.03125 "/></g></g></g><g fill="#000000" fill-opacity="1"><g transform="translate(216.699529, 198.450045)"><g><path d="M 13.386719 -3.378906 C 10.183594 -3.378906 8.449219 -5.113281 8.449219 -8.277344 L 8.449219 -20.0625 L 15.816406 -20.0625 L 15.816406 -23.398438 L 8.449219 -23.398438 L 8.449219 -28.335938 L 7.886719 -28.335938 L 0.648438 -20.710938 L 0.648438 -20.0625 L 4.765625 -20.0625 L 4.765625 -8.144531 C 4.765625 -3.078125 7.886719 0 12.910156 0 L 15.945312 0 L 15.945312 -3.378906 Z M 13.386719 -3.378906 "/></g></g></g><g fill="#000000" fill-opacity="1"><g transform="translate(233.85595, 198.450045)"><g><path d="M 17.589844 0.476562 C 24.738281 0.476562 30.371094 -3.8125 32.105469 -10.660156 L 28.25 -10.660156 C 26.644531 -6.023438 22.703125 -3.25 17.589844 -3.25 C 10.832031 -3.25 5.9375 -8.144531 5.9375 -15.121094 C 5.9375 -22.097656 10.832031 -27.078125 17.589844 -27.078125 C 22.574219 -27.078125 26.472656 -24.4375 28.078125 -20.0625 L 31.976562 -20.0625 C 30.242188 -26.601562 24.609375 -30.761719 17.589844 -30.761719 C 8.578125 -30.761719 2.035156 -24.21875 2.035156 -15.121094 C 2.035156 -6.066406 8.578125 0.476562 17.589844 0.476562 Z M 17.589844 0.476562 "/></g></g></g><g fill="#000000" fill-opacity="1"><g transform="translate(267.475599, 198.450045)"><g><path d="M 15.382812 -23.875 C 12 -23.875 9.183594 -22.488281 7.367188 -20.191406 L 7.367188 -31.714844 L 3.683594 -31.714844 L 3.683594 0 L 7.367188 0 L 7.367188 -12.738281 C 7.367188 -17.113281 10.441406 -20.539062 14.472656 -20.539062 C 18.5 -20.539062 20.753906 -17.851562 20.753906 -13.128906 L 20.753906 0 L 24.4375 0 L 24.4375 -13.996094 C 24.4375 -20.0625 20.96875 -23.875 15.382812 -23.875 Z M 15.382812 -23.875 "/></g></g></g><g fill="#000000" fill-opacity="1"><g transform="translate(295.289787, 198.450045)"><g><path d="M 23.65625 -23.398438 L 23.179688 -19.800781 C 21.015625 -22.355469 17.765625 -23.875 13.953125 -23.875 C 7.019531 -23.875 1.820312 -18.675781 1.820312 -11.65625 C 1.820312 -4.722656 7.019531 0.519531 13.953125 0.519531 C 17.765625 0.519531 20.96875 -0.996094 23.136719 -3.507812 L 23.527344 0 L 26.558594 0 L 26.558594 -23.398438 Z M 14.210938 -3.03125 C 9.273438 -3.03125 5.589844 -6.757812 5.589844 -11.699219 C 5.589844 -16.59375 9.273438 -20.320312 14.210938 -20.320312 C 19.195312 -20.320312 22.789062 -16.636719 22.789062 -11.699219 C 22.789062 -6.714844 19.195312 -3.03125 14.210938 -3.03125 Z M 14.210938 -3.03125 "/></g></g></g><g fill="#000000" fill-opacity="1"><g transform="translate(325.57345, 198.450045)"><g><path d="M 13.386719 -3.378906 C 10.183594 -3.378906 8.449219 -5.113281 8.449219 -8.277344 L 8.449219 -20.0625 L 15.816406 -20.0625 L 15.816406 -23.398438 L 8.449219 -23.398438 L 8.449219 -28.335938 L 7.886719 -28.335938 L 0.648438 -20.710938 L 0.648438 -20.0625 L 4.765625 -20.0625 L 4.765625 -8.144531 C 4.765625 -3.078125 7.886719 0 12.910156 0 L 15.945312 0 L 15.945312 -3.378906 Z M 13.386719 -3.378906 "/></g></g></g></svg>