<svg xmlns="http://www.w3.org/2000/svg" xmlns:xlink="http://www.w3.org/1999/xlink" width="500" zoomAndPan="magnify" viewBox="0 0 375 374.999991" height="500" preserveAspectRatio="xMidYMid meet" version="1.0"><path fill="#000000" d="M 187.617188 112.332031 C 185.347656 112.332031 183.082031 112.433594 180.824219 112.632812 C 178.5625 112.832031 176.316406 113.128906 174.082031 113.527344 C 171.847656 113.925781 169.636719 114.421875 167.445312 115.015625 C 165.257812 115.609375 163.097656 116.296875 160.96875 117.078125 C 158.839844 117.863281 156.75 118.738281 154.695312 119.707031 C 152.644531 120.671875 150.640625 121.730469 148.679688 122.875 C 146.722656 124.019531 144.816406 125.246094 142.964844 126.558594 C 141.113281 127.871094 139.324219 129.261719 137.597656 130.734375 C 135.871094 132.203125 134.210938 133.746094 132.617188 135.363281 C 131.027344 136.980469 129.507812 138.664062 128.066406 140.414062 C 126.621094 142.164062 125.257812 143.972656 123.976562 145.84375 C 122.691406 147.714844 121.492188 149.640625 120.378906 151.613281 C 119.261719 153.589844 118.238281 155.613281 117.300781 157.679688 C 116.367188 159.746094 115.523438 161.851562 114.773438 163.992188 C 114.023438 166.132812 113.367188 168.300781 112.808594 170.5 C 112.25 172.699219 111.789062 174.917969 111.425781 177.160156 C 111.0625 179.398438 110.796875 181.648438 110.632812 183.910156 C 110.46875 186.175781 110.402344 188.441406 110.4375 190.707031 C 110.472656 192.976562 110.605469 195.238281 110.839844 197.496094 C 111.074219 199.753906 111.410156 201.996094 111.839844 204.222656 C 112.273438 206.449219 112.800781 208.652344 113.429688 210.832031 C 114.054688 213.015625 114.777344 215.164062 115.589844 217.28125 C 116.40625 219.398438 117.316406 221.472656 118.3125 223.511719 C 119.3125 225.546875 120.398438 227.535156 121.574219 229.476562 C 122.746094 231.417969 124.003906 233.304688 125.347656 235.136719 C 126.6875 236.964844 128.105469 238.734375 129.601562 240.4375 C 131.097656 242.144531 132.667969 243.78125 134.308594 245.347656 C 135.949219 246.914062 137.65625 248.40625 139.425781 249.820312 C 141.199219 251.238281 143.03125 252.574219 144.921875 253.828125 C 146.808594 255.082031 148.75 256.253906 150.746094 257.335938 C 152.738281 258.421875 154.773438 259.414062 156.855469 260.320312 C 158.9375 261.222656 161.054688 262.035156 163.207031 262.75 C 167.066406 263.425781 168.511719 261.113281 168.511719 259.085938 C 168.511719 257.253906 168.414062 251.171875 168.414062 244.710938 C 149.023438 248.277344 144.003906 239.980469 142.460938 235.640625 C 140.722656 231.351562 138.085938 227.71875 134.550781 224.738281 C 131.847656 223.289062 127.988281 219.71875 134.453125 219.625 C 135.6875 219.757812 136.886719 220.035156 138.054688 220.460938 C 139.222656 220.882812 140.320312 221.4375 141.355469 222.128906 C 142.386719 222.816406 143.324219 223.617188 144.164062 224.53125 C 145.003906 225.445312 145.722656 226.445312 146.320312 227.535156 C 146.582031 228.007812 146.871094 228.464844 147.179688 228.910156 C 147.488281 229.355469 147.816406 229.785156 148.167969 230.199219 C 148.515625 230.609375 148.886719 231.003906 149.277344 231.378906 C 149.667969 231.757812 150.074219 232.113281 150.496094 232.449219 C 150.921875 232.785156 151.363281 233.097656 151.816406 233.390625 C 152.273438 233.683594 152.742188 233.953125 153.222656 234.199219 C 153.707031 234.445312 154.199219 234.667969 154.703125 234.867188 C 155.207031 235.0625 155.71875 235.238281 156.238281 235.382812 C 156.761719 235.53125 157.285156 235.652344 157.820312 235.75 C 158.351562 235.84375 158.890625 235.914062 159.429688 235.957031 C 159.96875 236 160.507812 236.015625 161.050781 236.003906 C 161.589844 235.996094 162.128906 235.957031 162.667969 235.894531 C 163.207031 235.832031 163.738281 235.742188 164.265625 235.625 C 164.796875 235.511719 165.316406 235.367188 165.832031 235.203125 C 166.347656 235.035156 166.851562 234.84375 167.347656 234.625 C 167.84375 234.40625 168.328125 234.167969 168.800781 233.902344 C 168.96875 231.941406 169.476562 230.070312 170.324219 228.292969 C 171.171875 226.515625 172.304688 224.945312 173.722656 223.578125 C 156.546875 221.648438 138.601562 214.992188 138.601562 185.46875 C 138.574219 183.566406 138.726562 181.679688 139.058594 179.808594 C 139.390625 177.9375 139.894531 176.113281 140.570312 174.339844 C 141.25 172.5625 142.085938 170.867188 143.085938 169.25 C 144.085938 167.632812 145.226562 166.125 146.511719 164.722656 C 145.929688 163.070312 145.503906 161.378906 145.242188 159.648438 C 144.976562 157.914062 144.878906 156.171875 144.945312 154.421875 C 145.007812 152.671875 145.238281 150.941406 145.632812 149.234375 C 146.027344 147.527344 146.578125 145.871094 147.285156 144.269531 C 147.285156 144.269531 153.75 142.242188 168.511719 152.179688 C 174.828125 150.445312 181.257812 149.574219 187.808594 149.574219 C 194.359375 149.574219 200.789062 150.445312 207.105469 152.179688 C 221.867188 142.144531 228.332031 144.269531 228.332031 144.269531 C 229.039062 145.871094 229.589844 147.527344 229.984375 149.234375 C 230.378906 150.941406 230.609375 152.671875 230.675781 154.421875 C 230.742188 156.171875 230.640625 157.914062 230.378906 159.648438 C 230.113281 161.378906 229.6875 163.070312 229.105469 164.722656 C 230.394531 166.121094 231.539062 167.628906 232.539062 169.246094 C 233.542969 170.859375 234.382812 172.558594 235.058594 174.332031 C 235.738281 176.109375 236.238281 177.933594 236.570312 179.808594 C 236.898438 181.679688 237.046875 183.566406 237.015625 185.46875 C 237.015625 215.089844 218.972656 221.648438 201.800781 223.578125 C 202.71875 224.511719 203.53125 225.535156 204.234375 226.640625 C 204.933594 227.75 205.507812 228.917969 205.957031 230.152344 C 206.410156 231.382812 206.722656 232.648438 206.898438 233.949219 C 207.074219 235.25 207.113281 236.550781 207.007812 237.859375 C 207.007812 248.183594 206.914062 256.480469 206.914062 259.085938 C 206.914062 261.113281 208.359375 263.523438 212.21875 262.75 C 214.367188 262.027344 216.480469 261.210938 218.558594 260.300781 C 220.632812 259.394531 222.667969 258.394531 224.65625 257.304688 C 226.644531 256.21875 228.582031 255.042969 230.464844 253.785156 C 232.351562 252.523438 234.175781 251.1875 235.945312 249.765625 C 237.710938 248.347656 239.414062 246.851562 241.050781 245.28125 C 242.683594 243.710938 244.25 242.074219 245.738281 240.367188 C 247.230469 238.660156 248.644531 236.886719 249.980469 235.054688 C 251.316406 233.226562 252.570312 231.335938 253.738281 229.394531 C 254.90625 227.453125 255.988281 225.464844 256.984375 223.425781 C 257.976562 221.386719 258.878906 219.3125 259.691406 217.195312 C 260.503906 215.078125 261.21875 212.929688 261.839844 210.75 C 262.460938 208.570312 262.988281 206.367188 263.414062 204.140625 C 263.84375 201.914062 264.171875 199.671875 264.402344 197.417969 C 264.632812 195.160156 264.765625 192.898438 264.796875 190.632812 C 264.828125 188.367188 264.761719 186.101562 264.59375 183.84375 C 264.425781 181.582031 264.15625 179.332031 263.792969 177.09375 C 263.425781 174.855469 262.960938 172.640625 262.402344 170.445312 C 261.839844 168.246094 261.183594 166.078125 260.429688 163.941406 C 259.679688 161.800781 258.832031 159.699219 257.898438 157.636719 C 256.960938 155.574219 255.933594 153.554688 254.820312 151.578125 C 253.703125 149.605469 252.503906 147.683594 251.21875 145.816406 C 249.9375 143.949219 248.570312 142.140625 247.128906 140.390625 C 245.683594 138.644531 244.167969 136.960938 242.578125 135.347656 C 240.984375 133.730469 239.324219 132.191406 237.597656 130.722656 C 235.871094 129.253906 234.082031 127.863281 232.234375 126.554688 C 230.382812 125.242188 228.480469 124.015625 226.523438 122.871094 C 224.566406 121.730469 222.558594 120.671875 220.511719 119.707031 C 218.460938 118.738281 216.371094 117.867188 214.242188 117.082031 C 212.113281 116.300781 209.957031 115.613281 207.769531 115.019531 C 205.582031 114.425781 203.371094 113.929688 201.140625 113.53125 C 198.90625 113.132812 196.660156 112.835938 194.402344 112.636719 C 192.144531 112.433594 189.882812 112.332031 187.617188 112.332031 Z M 187.617188 112.332031 " fill-opacity="1" fill-rule="nonzero"/></svg>